<mxfile host="65bd71144e">
    <diagram id="LACVFGl5T9p82w26VkBC" name="Page-1">
        <mxGraphModel dx="1431" dy="759" grid="1" gridSize="10" guides="1" tooltips="1" connect="1" arrows="1" fold="1" page="1" pageScale="1" pageWidth="850" pageHeight="1100" math="0" shadow="0">
            <root>
                <mxCell id="0"/>
                <mxCell id="1" parent="0"/>
                <mxCell id="2" value="LOGO                            signup" style="swimlane;" vertex="1" parent="1">
                    <mxGeometry x="40" y="70" width="200" height="220" as="geometry"/>
                </mxCell>
                <mxCell id="3" value="email&lt;br&gt;password" style="whiteSpace=wrap;html=1;aspect=fixed;" vertex="1" parent="2">
                    <mxGeometry x="60" y="70" width="100" height="100" as="geometry"/>
                </mxCell>
                <mxCell id="4" value="login" style="rounded=0;whiteSpace=wrap;html=1;" vertex="1" parent="2">
                    <mxGeometry x="60" y="140" width="40" height="20" as="geometry"/>
                </mxCell>
                <mxCell id="7" value="Sign up" style="rounded=0;whiteSpace=wrap;html=1;" vertex="1" parent="2">
                    <mxGeometry x="120" y="140" width="40" height="20" as="geometry"/>
                </mxCell>
                <mxCell id="9" value="login" style="text;html=1;align=center;verticalAlign=middle;resizable=0;points=[];autosize=1;strokeColor=none;fillColor=none;" vertex="1" parent="2">
                    <mxGeometry x="85" y="35" width="50" height="30" as="geometry"/>
                </mxCell>
                <mxCell id="10" value="LOGO                                signup" style="swimlane;" vertex="1" parent="1">
                    <mxGeometry x="260" y="70" width="200" height="220" as="geometry"/>
                </mxCell>
                <mxCell id="11" value="username&lt;br&gt;email&lt;br&gt;password" style="whiteSpace=wrap;html=1;aspect=fixed;" vertex="1" parent="10">
                    <mxGeometry x="45" y="70" width="130" height="130" as="geometry"/>
                </mxCell>
                <mxCell id="16" style="edgeStyle=none;html=1;exitX=0.5;exitY=1;exitDx=0;exitDy=0;" edge="1" parent="10" source="13" target="11">
                    <mxGeometry relative="1" as="geometry"/>
                </mxCell>
                <mxCell id="17" style="edgeStyle=none;html=1;exitX=0.5;exitY=0;exitDx=0;exitDy=0;" edge="1" parent="10" source="13" target="11">
                    <mxGeometry relative="1" as="geometry"/>
                </mxCell>
                <mxCell id="13" value="Sign up" style="rounded=0;whiteSpace=wrap;html=1;" vertex="1" parent="10">
                    <mxGeometry x="85" y="160" width="40" height="30" as="geometry"/>
                </mxCell>
                <mxCell id="14" value="register" style="text;html=1;align=center;verticalAlign=middle;resizable=0;points=[];autosize=1;strokeColor=none;fillColor=none;" vertex="1" parent="10">
                    <mxGeometry x="80" y="35" width="60" height="30" as="geometry"/>
                </mxCell>
                <mxCell id="15" value="image" style="whiteSpace=wrap;html=1;aspect=fixed;" vertex="1" parent="10">
                    <mxGeometry x="90" y="70" width="40" height="40" as="geometry"/>
                </mxCell>
                <mxCell id="36" value="LOGO                  username     " style="swimlane;" vertex="1" parent="1">
                    <mxGeometry x="260" y="450" width="200" height="270" as="geometry"/>
                </mxCell>
                <mxCell id="37" value="" style="whiteSpace=wrap;html=1;aspect=fixed;" vertex="1" parent="36">
                    <mxGeometry x="22.5" y="100" width="35" height="35" as="geometry"/>
                </mxCell>
                <mxCell id="38" value="" style="whiteSpace=wrap;html=1;aspect=fixed;" vertex="1" parent="36">
                    <mxGeometry x="85" y="100" width="35" height="35" as="geometry"/>
                </mxCell>
                <mxCell id="39" value="" style="whiteSpace=wrap;html=1;aspect=fixed;" vertex="1" parent="36">
                    <mxGeometry x="142.5" y="100" width="35" height="35" as="geometry"/>
                </mxCell>
                <mxCell id="40" value="" style="whiteSpace=wrap;html=1;aspect=fixed;" vertex="1" parent="36">
                    <mxGeometry x="22.5" y="157.5" width="35" height="35" as="geometry"/>
                </mxCell>
                <mxCell id="41" value="" style="whiteSpace=wrap;html=1;aspect=fixed;" vertex="1" parent="36">
                    <mxGeometry x="85" y="157.5" width="35" height="35" as="geometry"/>
                </mxCell>
                <mxCell id="42" value="" style="whiteSpace=wrap;html=1;aspect=fixed;" vertex="1" parent="36">
                    <mxGeometry x="142.5" y="157.5" width="35" height="35" as="geometry"/>
                </mxCell>
                <mxCell id="43" value="" style="whiteSpace=wrap;html=1;aspect=fixed;" vertex="1" parent="36">
                    <mxGeometry x="22.5" y="215" width="35" height="35" as="geometry"/>
                </mxCell>
                <mxCell id="44" value="" style="whiteSpace=wrap;html=1;aspect=fixed;" vertex="1" parent="36">
                    <mxGeometry x="85" y="215" width="35" height="35" as="geometry"/>
                </mxCell>
                <mxCell id="45" value="" style="whiteSpace=wrap;html=1;aspect=fixed;" vertex="1" parent="36">
                    <mxGeometry x="142.5" y="215" width="35" height="35" as="geometry"/>
                </mxCell>
                <mxCell id="61" value="add new post&amp;nbsp;" style="rounded=0;whiteSpace=wrap;html=1;" vertex="1" parent="36">
                    <mxGeometry x="40" y="30" width="120" height="50" as="geometry"/>
                </mxCell>
                <mxCell id="46" value="my resources" style="text;html=1;align=center;verticalAlign=middle;resizable=0;points=[];autosize=1;strokeColor=none;fillColor=none;" vertex="1" parent="1">
                    <mxGeometry x="555" y="400" width="100" height="30" as="geometry"/>
                </mxCell>
                <mxCell id="49" value="LOGO                  username      " style="swimlane;" vertex="1" parent="1">
                    <mxGeometry x="505" y="450" width="200" height="270" as="geometry"/>
                </mxCell>
                <mxCell id="50" value="" style="whiteSpace=wrap;html=1;aspect=fixed;" vertex="1" parent="49">
                    <mxGeometry x="20" y="35" width="35" height="35" as="geometry"/>
                </mxCell>
                <mxCell id="51" value="" style="whiteSpace=wrap;html=1;aspect=fixed;" vertex="1" parent="49">
                    <mxGeometry x="82.5" y="35" width="35" height="35" as="geometry"/>
                </mxCell>
                <mxCell id="52" value="" style="whiteSpace=wrap;html=1;aspect=fixed;" vertex="1" parent="49">
                    <mxGeometry x="140" y="35" width="35" height="35" as="geometry"/>
                </mxCell>
                <mxCell id="53" value="" style="whiteSpace=wrap;html=1;aspect=fixed;" vertex="1" parent="49">
                    <mxGeometry x="20" y="92.5" width="35" height="35" as="geometry"/>
                </mxCell>
                <mxCell id="54" value="" style="whiteSpace=wrap;html=1;aspect=fixed;" vertex="1" parent="49">
                    <mxGeometry x="82.5" y="92.5" width="35" height="35" as="geometry"/>
                </mxCell>
                <mxCell id="55" value="" style="whiteSpace=wrap;html=1;aspect=fixed;" vertex="1" parent="49">
                    <mxGeometry x="140" y="92.5" width="35" height="35" as="geometry"/>
                </mxCell>
                <mxCell id="56" value="" style="whiteSpace=wrap;html=1;aspect=fixed;" vertex="1" parent="49">
                    <mxGeometry x="20" y="150" width="35" height="35" as="geometry"/>
                </mxCell>
                <mxCell id="57" value="" style="whiteSpace=wrap;html=1;aspect=fixed;" vertex="1" parent="49">
                    <mxGeometry x="82.5" y="150" width="35" height="35" as="geometry"/>
                </mxCell>
                <mxCell id="58" value="" style="whiteSpace=wrap;html=1;aspect=fixed;" vertex="1" parent="49">
                    <mxGeometry x="140" y="150" width="35" height="35" as="geometry"/>
                </mxCell>
                <mxCell id="59" value="main page once logged in" style="text;html=1;align=center;verticalAlign=middle;resizable=0;points=[];autosize=1;strokeColor=none;fillColor=none;" vertex="1" parent="1">
                    <mxGeometry x="270" y="410" width="160" height="30" as="geometry"/>
                </mxCell>
                <mxCell id="62" value="add new post&amp;nbsp;&lt;br&gt;- title&lt;br&gt;-url&lt;br&gt;-description&lt;br&gt;-topic drop down - education, job, other&lt;br&gt;-save button" style="text;html=1;align=center;verticalAlign=middle;resizable=0;points=[];autosize=1;strokeColor=none;fillColor=none;" vertex="1" parent="1">
                    <mxGeometry x="20" y="510" width="230" height="100" as="geometry"/>
                </mxCell>
                <mxCell id="63" value="update profile" style="text;html=1;align=center;verticalAlign=middle;resizable=0;points=[];autosize=1;strokeColor=none;fillColor=none;" vertex="1" parent="1">
                    <mxGeometry x="580" y="20" width="100" height="30" as="geometry"/>
                </mxCell>
                <mxCell id="64" value="LOGO                       " style="swimlane;" vertex="1" parent="1">
                    <mxGeometry x="530" y="70" width="200" height="270" as="geometry"/>
                </mxCell>
                <mxCell id="74" value="username&lt;br&gt;password&lt;br&gt;image&lt;br&gt;post-it colour" style="whiteSpace=wrap;html=1;aspect=fixed;" vertex="1" parent="64">
                    <mxGeometry x="35" y="70" width="130" height="130" as="geometry"/>
                </mxCell>
                <mxCell id="86" value="" style="rounded=0;whiteSpace=wrap;html=1;" vertex="1" parent="64">
                    <mxGeometry x="55" y="175" width="20" height="20" as="geometry"/>
                </mxCell>
                <mxCell id="88" value="" style="rounded=0;whiteSpace=wrap;html=1;" vertex="1" parent="64">
                    <mxGeometry x="125" y="175" width="20" height="20" as="geometry"/>
                </mxCell>
                <mxCell id="87" value="" style="rounded=0;whiteSpace=wrap;html=1;" vertex="1" parent="64">
                    <mxGeometry x="90" y="175" width="20" height="20" as="geometry"/>
                </mxCell>
            </root>
        </mxGraphModel>
    </diagram>
</mxfile>